<?xml version="1.0" encoding="UTF-8"?>
<svg id="katman_1" data-name="katman 1" xmlns="http://www.w3.org/2000/svg" viewBox="0 0 463.83 98.05">
  <defs>
    <style>
      .cls-1 {
        fill: #e1261c;
      }

      .cls-2 {
        fill: #e2261d;
      }
    </style>
  </defs>
  <g>
    <path d="m19.82,27.43l10.66,23.32,10.72-23.32h19.71v35.92h-10.77l.27-26.88h-1.83l-13.52,26.88h-9.1l-13.52-26.88h-1.94l.27,26.88H0V27.43h19.82Z"/>
    <path d="m65.76,45.85c.27-3.72,1.51-5.71,4.47-7.16,2.21-1.02,6.62-1.51,14.27-1.51,8.35,0,10.29.38,12.44,2.53,1.62,1.72,2.15,3.66,2.15,8.29v15.35h-9.16v-3.5h-.38c-.81,1.67-1.83,2.59-3.55,3.29-1.56.65-3.99.86-10.18.86-8.46,0-11.09-1.88-11.09-7.92,0-4.58,1.72-7.11,5.44-8.08,2.32-.65,4.79-.81,11.8-.81,4.42,0,5.71.38,7.22,1.99h.43v-1.35c0-3.99-.75-4.52-6.52-4.52-6.84,0-7.54.22-7.81,2.53h-9.53Zm8.51,9.43c0,2.05,1.45,2.64,6.57,2.64,6.73,0,8.62-.65,8.62-2.91,0-1.02-.59-1.78-1.67-2.15-.59-.22-2.1-.27-6.14-.27-5.82,0-7.38.59-7.38,2.69Z"/>
    <path d="m112.78,27.43v18.74h2.05l8.72-8.29h12.76l-13.2,11.85,14.97,13.63h-12.66l-10.23-10.23h-2.42v10.23h-9.53V27.43h9.53Z"/>
    <path d="m148.17,37.88v3.82h.48c1.78-3.23,4.47-4.47,9.8-4.47,7.7,0,10.29,2.58,10.29,10.23v1.72h-8.99c0-3.77-1.08-4.79-5.01-4.79-2.15,0-3.93.65-4.85,1.83-.92,1.24-1.18,2.64-1.18,6.57v10.56h-9.53v-25.48h8.99Z"/>
    <path d="m180.97,27.43v7.16h-9.53v-7.16h9.53Zm0,10.45v25.48h-9.53v-25.48h9.53Z"/>
  </g>
  <g>
    <path d="m259.54,36.85c-2.92-4.1-7.55-4.63-8.28-4.7-9.69-.08-19.38-.15-29.06-.23v35.44h27.65c1.09-.01,2.66-.14,4.46-.68,1.09-.33,2.57-.77,3.89-1.78,2.58-1.98,3.21-5.1,3.39-6.34v-14.56c.05-1.02.08-4.16-2.05-7.15Zm-3.71,17.76c.23,8.01-7,7.34-7,7.34h-20.66v-24.49h20.2c7.45.56,7.45,6.55,7.45,6.55v10.61Z"/>
    <path d="m222.19,67.8h-.43V31.49l29.5.23c1.33.13,5.76.85,8.63,4.88h0c2.03,2.86,2.21,5.88,2.13,7.42v14.54c-.24,1.7-1.01,4.73-3.56,6.69-1.39,1.06-2.91,1.52-4.03,1.86-1.48.44-3.02.68-4.58.69h-27.66Zm.43-.87h27.22c1.47-.02,2.93-.24,4.33-.66,1.05-.31,2.49-.74,3.75-1.71,2.3-1.77,3.01-4.56,3.22-6.06v-14.5c.07-1.45-.09-4.25-1.97-6.9-2.66-3.73-6.77-4.4-7.97-4.52h-.4s-28.19-.22-28.19-.22v34.57Zm26.63-4.54c-.27,0-.44-.01-.47-.02h-21.05s0-25.36,0-25.36h20.64c7.79.59,7.89,6.92,7.89,6.98v10.6c.07,2.63-.63,4.65-2.07,6-1.71,1.61-3.98,1.79-4.94,1.79Zm-20.65-.88h20.22c.07,0,2.88.24,4.78-1.55,1.25-1.18,1.85-2.97,1.78-5.34v-10.62c0-.23-.11-5.59-7.05-6.11h-19.74v23.63Z"/>
  </g>
  <g>
    <path d="m305.32,56.98h5.36s.45,9.37-7.9,9.99l-21.39.4s-13.21,1.41-12.98-12.08v-12.28s-1.41-11.09,12.13-11.09h15.75s14-1.35,14.4,10.21l-5.7-.06s.62-5.3-7.68-4.8l-14.73.06s-5.25-.4-7.05,1.92c0,0-1.3.9-1.58,4.23l-.11,3.22h23.93l-.06,4.97-24.04.11.06,3.44c-.01.54.03,1.28.27,2.11.38,1.35,1.08,2.29,1.53,2.8.33.29.72.6,1.19.87,1.62.96,3.23,1.1,4.18,1.1,6.43.04,12.86.09,19.28.13.2-.02.4-.04.62-.08,1.06-.2,1.89-.64,2.49-1.05.33-.24.74-.6,1.11-1.11.87-1.21.94-2.49.94-3.03Z"/>
    <path d="m280.3,67.85c-1.91,0-5.9-.36-8.85-3.06-2.37-2.17-3.53-5.36-3.47-9.51v-12.27c-.02-.13-.54-4.48,2.42-7.83,2.16-2.45,5.57-3.69,10.15-3.69h15.75c.25-.03,7.23-.65,11.55,3.15,2.07,1.81,3.17,4.33,3.28,7.49l.02.45-6.64-.07.06-.48c0-.06.15-1.51-1-2.72-1.18-1.24-3.27-1.78-6.22-1.59l-14.75.06c-.09,0-5.07-.35-6.71,1.75l-.09.09s-1.14.88-1.4,3.91l-.1,2.75h23.92l-.07,5.83-24.03.11.05,3c-.01.69.07,1.36.25,2,.27.96.77,1.87,1.44,2.63.31.27.69.55,1.08.79,1.15.69,2.53,1.02,3.96,1.04l19.29.13c.15-.01.34-.04.54-.07.81-.15,1.59-.48,2.32-.98.39-.28.73-.62,1.01-1,.72-.99.86-2.06.86-2.78v-.44s6.21,0,6.21,0l.02.41c0,.1.37,9.8-8.3,10.44l-21.41.4c-.05,0-.46.05-1.11.05Zm17.28-35.53c-.76,0-1.23.04-1.24.04h-15.79c-4.31,0-7.51,1.14-9.49,3.39-2.7,3.05-2.22,7.17-2.21,7.21v12.33c-.06,3.89,1.01,6.87,3.19,8.86,3.65,3.34,9.26,2.8,9.32,2.79l21.43-.4c6.94-.52,7.46-7.34,7.48-9.12h-4.51c-.05.81-.29,1.86-1.01,2.85-.33.46-.74.87-1.21,1.2-.83.57-1.72.95-2.66,1.12-.23.04-.45.07-.66.09l-19.32-.13h-.03c-1.58,0-3.09-.4-4.37-1.16-.45-.27-.87-.58-1.26-.92-.79-.9-1.35-1.92-1.65-3-.2-.72-.3-1.47-.28-2.24l-.06-3.86,24.05-.11.05-4.1h-23.94l.13-3.67c.27-3.14,1.42-4.29,1.7-4.53,1.95-2.42,7.17-2.06,7.4-2.04l14.7-.06c3.19-.2,5.52.43,6.88,1.88,1,1.06,1.2,2.27,1.23,2.92l4.81.05c-.18-2.69-1.18-4.85-2.95-6.41-3-2.63-7.53-2.98-9.7-2.98Z"/>
  </g>
  <g>
    <path d="m349.57,43.01h6.09s.23-3.41-1.19-6.06c0,0-2.26-4.91-8.41-4.74h-17.38c-.97-.03-2.07,0-3.27.15-2.35.29-4.31.92-5.8,1.54-.71.34-1.61.88-2.46,1.77-2.19,2.28-2.39,5.13-2.41,6.02v13.38s-.06,6.55,2.77,8.86c0,0,1.81,2.79,6.83,3.48h20.6s4.57.35,7.73-2.58c.4-.33.83-.77,1.23-1.32,1.28-1.76,1.44-3.66,1.45-4.58,0-.78.02-1.56.03-2.34-1.91,0-3.83-.02-5.74-.03.01.45-.03,1.09-.25,1.81-.12.39-.28.72-.43.99-.34.53-1.12,1.57-2.51,2.14-.46.19-.88.28-1.25.33-6.16-.02-12.32-.03-18.48-.05,0,0-5.36.23-6.15-5.08l-.06-12.02s0-7.17,7.56-7.05l15.07.06s6.09-.18,6.43,5.33Z"/>
    <path d="m345.45,67.86c-.31,0-.5-.01-.54-.02h-20.57c-4.87-.67-6.85-3.19-7.15-3.62-2.9-2.45-2.88-8.88-2.88-9.16v-13.37c.04-1.43.43-4.13,2.53-6.32.73-.77,1.61-1.39,2.59-1.86,1.92-.8,3.91-1.33,5.93-1.57,1.1-.14,2.22-.19,3.33-.16h17.37c6.34-.16,8.78,4.95,8.8,5,1.44,2.71,1.23,6.13,1.22,6.27l-.03.4h-6.91l-.03-.41c-.31-5.02-5.76-4.93-5.99-4.92l-15.08-.06c-2.2-.04-3.91.56-5.13,1.76-1.97,1.93-2,4.83-2,4.86l.06,12.02c.72,4.79,5.5,4.66,5.7,4.65l18.5.05c.34-.05.72-.15,1.08-.3,1.17-.48,1.9-1.34,2.31-1.97.15-.27.28-.57.38-.89.17-.54.25-1.09.23-1.66v-.45s6.61.03,6.61.03l-.03,2.78c-.01,1.26-.29,3.11-1.53,4.83-.37.51-.81.98-1.3,1.4-2.63,2.45-6.16,2.7-7.5,2.7Zm-.51-.88c.07,0,4.46.3,7.44-2.47.45-.38.84-.8,1.17-1.26,1.11-1.53,1.35-3.2,1.37-4.33l.02-1.91-4.87-.02c-.02.51-.12,1.02-.27,1.5-.12.37-.27.73-.46,1.07-.49.77-1.35,1.77-2.73,2.33-.43.17-.89.3-1.35.36l-18.54-.04s-5.74.18-6.58-5.45l-.06-12.08c0-.13.03-3.28,2.25-5.47,1.4-1.37,3.3-2.05,5.75-2.02l15.06.06c.05,0,6.2-.12,6.83,5.33h5.28c0-.96-.09-3.44-1.15-5.43-.1-.21-2.22-4.68-8.01-4.51h-17.39c-1.08-.03-2.16.02-3.21.15-1.94.24-3.85.75-5.68,1.51-.87.41-1.66.98-2.32,1.67-1.91,1.99-2.25,4.45-2.29,5.74v13.36c0,.07-.02,6.37,2.61,8.53l.09.1s1.78,2.64,6.52,3.29h20.54Z"/>
  </g>
  <g>
    <path d="m401.32,43.01s.23-4.69-3.31-8.08c0,0-2.63-2.92-9.33-2.74-5.32-.03-10.64-.05-15.95-.08-.44,0-.89.03-1.35.06-1.37.1-2.63.29-3.76.54-.91.24-3.02.93-4.84,2.9-2.23,2.41-2.58,5.17-2.65,6.05,0,5.08-.02,10.16-.03,15.25,0,0-.08,10.51,11.89,10.51h16.25c1.02.07,2.35.05,3.86-.25,2.29-.46,4.02-1.37,5.1-2.06.49-.29,1.17-.77,1.82-1.51,1.2-1.38,1.56-2.85,1.91-4.35.22-.95.45-2.32.41-3.99v-12.24Zm-5.98,2.29c-.11,3.65-.23,7.3-.34,10.95-.01.67-.15,2.12-1.19,3.3-1.04,1.17-2.42,1.46-3.66,1.72-1.23.26-2.28.23-2.99.17-5.27-.02-10.53-.04-15.8-.06-.47-.05-2.22-.3-3.61-1.81-1.66-1.78-1.55-3.97-1.52-4.35v-11.68c.04-.57.24-2.21,1.52-3.61,2.03-2.21,4.99-1.9,5.3-1.86,5-.02,10.01-.04,15.01-.06.39-.03,3.14-.22,5.3,1.92,2.2,2.17,2.01,4.98,1.98,5.36Z"/>
    <path d="m389.19,67.89c-.33,0-.66-.01-.99-.03h-16.23c-3.92,0-6.99-1.1-9.15-3.27-3.17-3.19-3.17-7.5-3.17-7.68l.03-15.23c.12-1.42.63-4.05,2.77-6.36,1.71-1.85,3.69-2.66,5.05-3.02,1.28-.28,2.56-.46,3.84-.55.47-.03.93-.05,1.38-.06l15.96.08c6.77-.18,9.54,2.76,9.65,2.88,3.56,3.41,3.44,8.05,3.42,8.38v12.23c.03,1.38-.12,2.76-.42,4.09-.33,1.43-.71,3.05-2,4.54-.54.62-1.19,1.16-1.92,1.6-1.61,1.03-3.38,1.74-5.24,2.11-.98.2-1.98.29-2.98.29Zm-16.47-35.34c-.42,0-.86.03-1.32.06-1.24.09-2.48.27-3.7.53-1.23.32-3.05,1.07-4.62,2.77-1.96,2.11-2.43,4.54-2.54,5.79l-.03,15.21s.01,4.14,2.93,7.07c1.99,2,4.86,3.01,8.53,3.01h16.25c1.28.08,2.54,0,3.77-.25,1.75-.35,3.42-1.02,4.95-2,.66-.4,1.24-.88,1.72-1.43,1.15-1.33,1.49-2.77,1.81-4.17.29-1.26.43-2.56.4-3.88v-12.27s.17-4.54-3.18-7.74c-.05-.05-2.62-2.8-9.02-2.62l-15.97-.08Zm15.37,29.37c-.32,0-.65-.02-.98-.04l-15.76-.06c-.74-.08-2.52-.42-3.93-1.94-1.69-1.82-1.68-4.03-1.64-4.67v-11.65c.06-.88.36-2.51,1.64-3.9,2.16-2.35,5.32-2.04,5.68-2l14.96-.06c.52-.04,3.38-.17,5.61,2.04,2.26,2.23,2.15,5.11,2.1,5.69l-.34,10.94c-.02.98-.26,2.4-1.3,3.58-1.13,1.27-2.6,1.58-3.89,1.85-.7.15-1.42.22-2.14.22Zm-15.7-23.44c-1.01,0-2.92.23-4.33,1.76-1.1,1.2-1.36,2.62-1.41,3.35v11.65c-.04.58-.04,2.49,1.41,4.05,1.22,1.31,2.74,1.6,3.34,1.67l15.76.05c1,.09,1.97.04,2.9-.16,1.22-.26,2.48-.52,3.42-1.58.87-.98,1.07-2.19,1.09-3.02l.34-10.98c.04-.49.15-3.04-1.85-5.02-1.97-1.94-4.48-1.84-4.96-1.79l-15.05.06c-.09-.01-.33-.03-.66-.03Z"/>
  </g>
  <g>
    <path d="m443.76,50.89c.44-.25,1.13-.72,1.76-1.53.27-.35.75-1.05,1.03-2.04.18-.63.2-1.13.22-1.48.08-1.64.11-3.14.13-4.29.03-.87-.04-2.38-.79-4.04-1.25-2.75-3.54-4.01-4.3-4.38,0,0-1.73-1.12-5.79-1.01h-27.39v35.34h5.94v-13.48l21.82-.15s5.34.08,5.87,5.19v8.44h5.94v-10.77s-.53-4.36-4.44-5.79Zm-2.71-8.02c.23,4.32-4.29,4.86-4.29,4.86h-22.27v-9.73h21.71c2.02.06,3.77,1.05,4.5,2.61.41.87.41,1.71.35,2.25Z"/>
    <path d="m448.63,67.89h-6.81v-8.87c-.48-4.64-5.24-4.76-5.44-4.76l-21.38.15v13.48h-6.81V31.68h27.82c4.14-.12,5.95,1.03,6.03,1.08,1.12.55,3.25,1.92,4.46,4.57.59,1.3.88,2.77.83,4.23-.02,1.46-.07,2.91-.13,4.29-.02.36-.04.89-.23,1.58-.22.79-.6,1.54-1.1,2.19-.35.45-.75.85-1.2,1.19,3.43,1.74,3.94,5.65,3.97,5.82v11.26Zm-5.94-.87h5.08v-10.34h0s-.55-4.07-4.16-5.39l-.87-.32.81-.46c.64-.37,1.18-.84,1.63-1.42.43-.56.76-1.21.95-1.89.17-.59.19-1.07.2-1.38.06-1.37.11-2.81.13-4.27.05-1.34-.21-2.67-.75-3.85-1.1-2.41-3.04-3.65-4.1-4.17-.06-.03-1.76-1.07-5.59-.97h-26.97v34.47h5.08v-13.48l22.25-.15c.07,0,5.74.14,6.3,5.58v8.05Zm-28.2-18.86h-.43v-10.59h22.14c2.23.07,4.1,1.17,4.89,2.86.34.73.48,1.58.39,2.44.22,4.64-4.62,5.28-4.67,5.28h-22.32Zm.43-.87h21.84c.12-.02,4.06-.55,3.86-4.41v-.03s0-.03,0-.03c.08-.73-.03-1.41-.31-2.02-.66-1.4-2.24-2.31-4.12-2.37h-21.26v8.86Z"/>
  </g>
  <g>
    <rect class="cls-2" x="199.85" y=".43" width="4.63" height="97.18"/>
    <path class="cls-1" d="m204.91,98.05h-5.49V0h5.49v98.05Zm-4.63-.87h3.76V.87h-3.76v96.31Z"/>
  </g>
  <path d="m463.83,17.45c0,5.8-4.56,10.36-10.48,10.36s-10.55-4.55-10.55-10.36,4.68-10.23,10.55-10.23,10.48,4.56,10.48,10.23Zm-18.41,0c0,4.56,3.37,8.18,7.99,8.18s7.8-3.62,7.8-8.11-3.31-8.24-7.86-8.24-7.92,3.68-7.92,8.17Zm6.3,5.37h-2.37v-10.23c.94-.19,2.25-.31,3.93-.31,1.93,0,2.81.31,3.56.75.56.44,1,1.25,1,2.25,0,1.12-.87,2-2.12,2.37v.12c1,.37,1.56,1.12,1.87,2.5.31,1.56.5,2.18.75,2.56h-2.56c-.31-.37-.5-1.31-.81-2.5-.19-1.12-.81-1.62-2.12-1.62h-1.12v4.12Zm.06-5.8h1.12c1.31,0,2.37-.44,2.37-1.5,0-.94-.69-1.56-2.18-1.56-.62,0-1.06.06-1.31.13v2.93Z"/>
</svg>