<?xml version="1.0" encoding="UTF-8"?>
<svg id="katman_1" data-name="katman 1" xmlns="http://www.w3.org/2000/svg" viewBox="0 0 535.23 113.14">
  <defs>
    <style>
      .cls-1 {
        fill: #fff;
      }

      .cls-2 {
        fill: #e1261c;
      }
    </style>
  </defs>
  <g>
    <path class="cls-1" d="m22.87,31.65l12.31,26.91,12.37-26.91h22.75v41.45h-12.43l.31-31.01h-2.11l-15.6,31.01h-10.5l-15.6-31.01h-2.24l.31,31.01H0V31.65h22.87Z"/>
    <path class="cls-1" d="m75.89,52.91c.31-4.29,1.74-6.59,5.16-8.27,2.55-1.18,7.64-1.74,16.47-1.74,9.63,0,11.87.44,14.36,2.92,1.86,1.99,2.49,4.23,2.49,9.57v17.71h-10.56v-4.04h-.44c-.93,1.93-2.11,2.98-4.1,3.79-1.8.75-4.6.99-11.75.99-9.76,0-12.8-2.17-12.8-9.14,0-5.28,1.99-8.2,6.28-9.32,2.67-.75,5.53-.93,13.61-.93,5.1,0,6.59.44,8.33,2.3h.5v-1.55c0-4.6-.87-5.22-7.52-5.22-7.89,0-8.7.25-9.01,2.92h-11Zm9.82,10.88c0,2.36,1.68,3.04,7.58,3.04,7.77,0,9.94-.75,9.94-3.36,0-1.18-.68-2.05-1.93-2.49-.68-.25-2.42-.31-7.08-.31-6.71,0-8.51.68-8.51,3.11Z"/>
    <path class="cls-1" d="m130.15,31.65v21.63h2.36l10.07-9.57h14.73l-15.23,13.67,17.28,15.72h-14.6l-11.81-11.81h-2.8v11.81h-11V31.65h11Z"/>
    <path class="cls-1" d="m170.98,43.71v4.41h.56c2.05-3.73,5.16-5.16,11.31-5.16,8.89,0,11.87,2.98,11.87,11.81v1.99h-10.38c0-4.35-1.24-5.53-5.78-5.53-2.49,0-4.54.75-5.59,2.11-1.06,1.43-1.37,3.04-1.37,7.58v12.18h-11v-29.4h10.38Z"/>
    <path class="cls-1" d="m208.83,31.65v8.27h-11v-8.27h11Zm0,12.06v29.4h-11v-29.4h11Z"/>
  </g>
  <g>
    <path class="cls-1" d="m299.49,42.52c-3.37-4.73-8.72-5.34-9.55-5.42-11.18-.09-22.36-.17-33.54-.26v40.9h31.91c1.26-.02,3.07-.16,5.14-.78,1.26-.38,2.96-.89,4.49-2.06,2.98-2.28,3.7-5.89,3.91-7.32v-16.8c.06-1.18.09-4.8-2.36-8.25Zm-4.28,20.49c.26,9.25-8.08,8.47-8.08,8.47h-23.83v-28.26h23.31c8.6.65,8.6,7.55,8.6,7.55v12.24Z"/>
    <path class="cls-1" d="m256.4,78.23h-.5v-41.9l34.04.26c1.53.15,6.64.98,9.96,5.63,2.35,3.3,2.55,6.78,2.46,8.57v16.78c-.28,1.96-1.17,5.46-4.1,7.72-1.6,1.23-3.37,1.75-4.65,2.14-1.71.51-3.48.78-5.28.8h-31.92Zm.5-1h31.41c1.7-.02,3.38-.28,5-.76,1.21-.36,2.88-.86,4.33-1.97,2.65-2.04,3.47-5.26,3.72-7v-16.73c.08-1.68-.11-4.91-2.28-7.96h0c-3.07-4.31-7.81-5.08-9.19-5.22l-32.99-.25v39.89Zm30.73-5.23c-.31,0-.5-.02-.54-.02h-24.29s0-29.26,0-29.26h23.81c8.99.68,9.1,7.98,9.1,8.05v12.24c.08,3.03-.72,5.36-2.39,6.92-1.98,1.85-4.59,2.07-5.7,2.07Zm-23.83-1.02h23.33c.08,0,3.32.27,5.51-1.79,1.44-1.36,2.14-3.43,2.06-6.17v-12.26c0-.26-.12-6.45-8.13-7.06h-22.78v27.26Z"/>
  </g>
  <g>
    <path class="cls-1" d="m352.32,65.75h6.19s.52,10.81-9.12,11.53l-24.68.46s-15.24,1.63-14.98-13.94v-14.17s-1.63-12.79,14-12.79h18.17s16.16-1.56,16.61,11.79l-6.58-.07s.72-6.12-8.86-5.54l-17,.07s-6.06-.46-8.14,2.21c0,0-1.5,1.04-1.82,4.88l-.13,3.71h27.61l-.07,5.73-27.74.13.07,3.97c-.01.63.04,1.48.31,2.43.44,1.56,1.24,2.64,1.76,3.23.38.34.83.69,1.37,1.01,1.87,1.11,3.73,1.27,4.83,1.27,7.42.05,14.83.1,22.25.15.23-.02.47-.05.71-.09,1.22-.23,2.19-.74,2.87-1.21.39-.28.86-.69,1.28-1.28,1.01-1.39,1.09-2.87,1.08-3.5Z"/>
    <path class="cls-1" d="m323.44,78.29c-2.21,0-6.81-.42-10.21-3.53-2.73-2.5-4.08-6.19-4-10.97v-14.16c-.03-.15-.62-5.17,2.79-9.03,2.49-2.83,6.43-4.26,11.71-4.26h18.17c.29-.03,8.34-.75,13.33,3.63,2.38,2.09,3.66,5,3.78,8.64l.02.52-7.66-.08.06-.55c0-.07.17-1.74-1.16-3.14-1.36-1.43-3.78-2.05-7.17-1.84l-17.02.07c-.1,0-5.85-.41-7.75,2.02l-.11.1s-1.31,1.02-1.61,4.52l-.11,3.17h27.6l-.08,6.73-27.73.13.06,3.47c-.02.79.08,1.56.29,2.31.32,1.12.87,2.14,1.66,3.04.36.32.79.64,1.25.91,1.32.79,2.89,1.2,4.53,1.2h.04l22.26.15c.17-.02.39-.04.62-.09.94-.17,1.84-.55,2.68-1.13.45-.32.84-.71,1.16-1.16.82-1.14.99-2.37.99-3.21v-.5s7.16,0,7.16,0l.02.48c0,.11.43,11.31-9.58,12.05l-24.71.46c-.06,0-.53.05-1.28.05Zm19.94-41c-.87,0-1.41.05-1.43.05h-18.22c-4.98,0-8.67,1.32-10.96,3.92-3.11,3.53-2.55,8.26-2.55,8.31v14.23c-.07,4.49,1.17,7.93,3.68,10.22,4.22,3.86,10.69,3.22,10.75,3.21l24.73-.46c8-.59,8.61-8.47,8.63-10.53h-5.21c-.06.94-.34,2.15-1.16,3.29-.38.53-.85,1-1.4,1.39-.96.66-1.99,1.09-3.07,1.29-.26.05-.52.08-.76.1l-22.3-.15h-.04c-1.82,0-3.57-.46-5.04-1.34-.51-.3-1-.66-1.45-1.07-.92-1.05-1.55-2.2-1.91-3.47-.24-.84-.35-1.71-.33-2.58l-.07-4.46,27.76-.13.05-4.73h-27.62l.15-4.23c.31-3.63,1.64-4.95,1.97-5.22,2.25-2.79,8.28-2.38,8.53-2.36l16.96-.07c3.68-.23,6.37.5,7.94,2.17,1.16,1.22,1.39,2.62,1.42,3.38l5.55.05c-.21-3.11-1.36-5.59-3.41-7.4-3.46-3.04-8.69-3.44-11.19-3.44Z"/>
  </g>
  <g>
    <path class="cls-1" d="m403.38,49.63h7.03s.26-3.94-1.37-7c0,0-2.6-5.67-9.7-5.47h-20.06c-1.12-.03-2.39,0-3.77.18-2.72.33-4.98,1.06-6.69,1.77-.81.39-1.86,1.02-2.84,2.04-2.52,2.63-2.75,5.92-2.78,6.95v15.43s-.07,7.55,3.19,10.22c0,0,2.08,3.22,7.88,4.02h23.77s5.27.41,8.92-2.98c.46-.38.96-.88,1.42-1.52,1.48-2.04,1.66-4.22,1.67-5.28.01-.9.02-1.8.03-2.7-2.21-.01-4.42-.02-6.63-.03.01.52-.03,1.26-.29,2.08-.14.45-.32.83-.5,1.14-.39.61-1.29,1.82-2.9,2.47-.53.21-1.02.32-1.44.38-7.11-.02-14.22-.03-21.33-.05,0,0-6.19.26-7.1-5.86l-.07-13.87s0-8.27,8.73-8.14l17.39.07s7.03-.2,7.42,6.15Z"/>
    <path class="cls-1" d="m398.62,78.3c-.36,0-.58-.02-.62-.02h-23.73c-5.62-.77-7.9-3.68-8.25-4.18-3.35-2.83-3.32-10.25-3.32-10.57v-15.43c.05-1.65.49-4.76,2.92-7.3.85-.88,1.85-1.6,2.99-2.15,2.21-.92,4.51-1.53,6.84-1.82,1.27-.16,2.56-.22,3.84-.19h20.04c7.29-.18,10.13,5.71,10.16,5.77,1.66,3.12,1.42,7.07,1.41,7.24l-.03.47h-7.97l-.03-.47c-.36-5.79-6.64-5.69-6.91-5.68l-17.4-.06c-2.53-.04-4.51.65-5.92,2.03-2.27,2.23-2.31,5.57-2.31,5.61l.07,13.87c.83,5.52,6.34,5.38,6.58,5.36l21.35.05c.39-.06.83-.17,1.25-.34,1.35-.55,2.2-1.54,2.67-2.28.17-.31.32-.66.44-1.02.2-.62.29-1.26.27-1.92v-.52s7.63.04,7.63.04l-.04,3.21c-.02,1.45-.34,3.6-1.77,5.57-.43.59-.94,1.14-1.51,1.61-3.04,2.82-7.11,3.11-8.66,3.11Zm-.59-1.02c.09,0,5.15.34,8.58-2.85.52-.44.97-.92,1.36-1.45,1.28-1.76,1.56-3.69,1.58-5l.03-2.2-5.62-.03c-.03.59-.13,1.17-.31,1.73-.14.42-.32.84-.54,1.23-.56.88-1.55,2.04-3.15,2.69-.5.2-1.02.34-1.56.41l-21.39-.05s-6.63.2-7.59-6.29l-.07-13.94c0-.16.03-3.78,2.6-6.31,1.61-1.59,3.8-2.37,6.64-2.33l17.38.06c.06,0,7.15-.14,7.88,6.15h6.09c0-1.11-.1-3.97-1.32-6.26-.11-.24-2.57-5.4-9.25-5.21h-20.07c-1.25-.04-2.49.02-3.71.17-2.24.28-4.45.86-6.56,1.74-1,.48-1.91,1.13-2.68,1.92-2.2,2.29-2.6,5.13-2.64,6.62v15.42c0,.08-.02,7.35,3.01,9.84l.1.11s2.06,3.05,7.53,3.8h23.7Z"/>
  </g>
  <g>
    <path class="cls-1" d="m463.1,49.63s.26-5.41-3.82-9.32c0,0-3.04-3.37-10.77-3.16-6.14-.03-12.27-.06-18.41-.09-.51.01-1.03.03-1.56.07-1.58.11-3.03.34-4.34.62-1.05.28-3.49,1.07-5.59,3.34-2.57,2.78-2.98,5.96-3.06,6.98-.01,5.86-.02,11.73-.03,17.59,0,0-.09,12.13,13.72,12.13h18.76c1.18.08,2.71.06,4.45-.29,2.64-.53,4.64-1.58,5.88-2.38.56-.34,1.35-.89,2.09-1.75,1.38-1.59,1.8-3.29,2.2-5.03.26-1.1.52-2.67.48-4.6v-14.12Zm-6.9,2.64c-.13,4.21-.26,8.42-.39,12.63-.01.77-.17,2.45-1.38,3.81-1.19,1.35-2.79,1.68-4.22,1.98-1.42.3-2.63.27-3.45.2-6.08-.02-12.16-.04-18.23-.07-.54-.06-2.56-.35-4.17-2.08-1.91-2.06-1.79-4.58-1.76-5.01v-13.48c.05-.66.27-2.55,1.76-4.17,2.34-2.55,5.76-2.19,6.12-2.15,5.77-.02,11.55-.04,17.32-.07.45-.04,3.63-.25,6.12,2.21,2.53,2.5,2.32,5.74,2.28,6.19Z"/>
    <path class="cls-1" d="m449.1,78.33c-.38,0-.76-.01-1.15-.04h-18.72c-4.52,0-8.07-1.27-10.56-3.78-3.65-3.68-3.66-8.65-3.66-8.86l.03-17.59c.13-1.62.73-4.65,3.19-7.32,1.97-2.13,4.26-3.07,5.83-3.49,1.47-.32,2.96-.53,4.43-.63.54-.04,1.08-.06,1.59-.07l18.42.09c7.82-.2,11.01,3.18,11.14,3.33,4.11,3.94,3.96,9.29,3.95,9.67v14.11c.03,1.59-.13,3.18-.49,4.72-.39,1.65-.82,3.52-2.31,5.24-.63.72-1.37,1.34-2.22,1.85-1.85,1.19-3.89,2.01-6.04,2.44-1.13.23-2.28.34-3.43.34Zm-19-40.78c-.48.01-1,.03-1.52.07-1.43.1-2.87.31-4.27.61-1.42.38-3.52,1.24-5.33,3.19-2.26,2.44-2.81,5.23-2.93,6.68l-.03,17.55s.02,4.78,3.38,8.16c2.29,2.3,5.61,3.47,9.84,3.47h18.75c1.48.09,2.94,0,4.35-.28,2.03-.41,3.95-1.18,5.71-2.31.77-.46,1.43-1.01,1.99-1.65,1.33-1.53,1.72-3.2,2.09-4.81.34-1.45.5-2.96.46-4.48v-14.16c0-.05.19-5.24-3.67-8.94-.05-.06-3.05-3.23-10.41-3.02l-18.42-.09Zm17.73,33.89c-.37,0-.75-.02-1.13-.05l-18.19-.06c-.86-.09-2.91-.49-4.53-2.24-1.95-2.1-1.94-4.65-1.89-5.39v-13.45c.07-1.01.41-2.89,1.89-4.51,2.49-2.72,6.14-2.36,6.55-2.31l17.26-.07c.59-.05,3.9-.19,6.47,2.36,2.61,2.57,2.48,5.89,2.43,6.57l-.39,12.62c-.02,1.13-.3,2.77-1.5,4.13-1.3,1.47-3,1.83-4.49,2.14-.81.17-1.64.26-2.47.26Zm-18.12-27.05c-1.17,0-3.37.26-4.99,2.03-1.27,1.39-1.57,3.02-1.63,3.87v13.44c-.04.67-.05,2.87,1.62,4.67,1.4,1.51,3.16,1.85,3.86,1.93l18.18.06c1.16.11,2.27.04,3.35-.18,1.41-.3,2.87-.6,3.95-1.83,1-1.13,1.23-2.52,1.25-3.49l.39-12.67c.05-.57.17-3.51-2.13-5.79-2.27-2.24-5.17-2.12-5.73-2.07l-17.36.07c-.1-.01-.38-.04-.76-.04Z"/>
  </g>
  <g>
    <path class="cls-1" d="m512.07,58.72c.5-.29,1.31-.84,2.03-1.77.31-.4.86-1.21,1.18-2.36.2-.73.23-1.3.25-1.71.09-1.89.13-3.62.15-4.94.04-1-.04-2.75-.91-4.66-1.44-3.17-4.09-4.62-4.96-5.06,0,0-2-1.3-6.69-1.17h-31.61v40.78h6.86v-15.56l25.18-.17s6.16.09,6.77,5.99v9.74h6.86v-12.43s-.61-5.04-5.12-6.69Zm-3.13-9.26c.26,4.98-4.95,5.61-4.95,5.61h-25.7v-11.22h25.05c2.33.07,4.35,1.21,5.2,3.02.47,1,.47,1.97.4,2.59Z"/>
    <path class="cls-1" d="m517.69,78.33h-7.86v-10.24c-.55-5.33-6.05-5.49-6.28-5.49l-24.67.17v15.56h-7.86v-41.78h32.11c4.76-.12,6.87,1.19,6.96,1.25,1.29.64,3.75,2.21,5.14,5.27.69,1.5,1.02,3.19.96,4.88-.03,1.7-.08,3.37-.15,4.95-.02.38-.05,1.02-.27,1.82-.25.91-.69,1.78-1.27,2.53-.4.52-.86.98-1.38,1.37,3.96,2,4.55,6.51,4.58,6.72v12.99Zm-6.86-1h5.86v-11.93h0s-.64-4.7-4.79-6.22l-1.01-.37.93-.53c.72-.41,1.37-.98,1.88-1.64.5-.65.88-1.4,1.1-2.18.19-.69.22-1.23.23-1.6.07-1.58.12-3.23.15-4.93.05-1.54-.25-3.08-.87-4.44-1.26-2.78-3.5-4.21-4.73-4.82-.07-.04-2.02-1.23-6.45-1.12h-31.12v39.78h5.86v-15.55l25.68-.18c.08,0,6.63.17,7.27,6.44v9.29Zm-32.54-21.76h-.5v-12.22h25.55c2.57.08,4.73,1.35,5.65,3.3.4.85.55,1.82.45,2.82.25,5.35-5.33,6.09-5.39,6.09h-25.76Zm.5-1h25.2c.13-.02,4.68-.64,4.45-5.08v-.04s0-.04,0-.04c.09-.84-.03-1.63-.36-2.33-.76-1.62-2.58-2.66-4.76-2.73h-24.53v10.22Z"/>
  </g>
  <g>
    <rect class="cls-2" x="230.61" y=".5" width="5.34" height="112.14"/>
    <path class="cls-2" d="m236.45,113.14h-6.34V0h6.34v113.14Zm-5.34-1h4.34V1h-4.34v111.14Z"/>
  </g>
  <path class="cls-1" d="m535.23,20.14c0,6.7-5.26,11.95-12.1,11.95s-12.17-5.26-12.17-11.95,5.4-11.81,12.17-11.81,12.1,5.26,12.1,11.81Zm-21.24,0c0,5.26,3.89,9.43,9.22,9.43s9-4.18,9-9.36-3.82-9.5-9.07-9.5-9.14,4.25-9.14,9.43Zm7.27,6.19h-2.74v-11.81c1.08-.22,2.59-.36,4.54-.36,2.23,0,3.24.36,4.1.86.65.5,1.15,1.44,1.15,2.59,0,1.3-1.01,2.3-2.45,2.74v.14c1.15.43,1.8,1.3,2.16,2.88.36,1.8.58,2.52.86,2.95h-2.95c-.36-.43-.58-1.51-.94-2.88-.22-1.3-.94-1.87-2.45-1.87h-1.3v4.75Zm.07-6.7h1.3c1.51,0,2.74-.5,2.74-1.73,0-1.08-.79-1.8-2.52-1.8-.72,0-1.22.07-1.51.14v3.38Z"/>
</svg>